Two rival clans under Anjooran and Achamma have a history of mutual hatred. Anjooran, convinced that women are the root of all evil, ensures that all his sons stay bachelors. The youngest son, Ramabhadran falls in love with Malu, from Achamma's family. A complicated tug-of-war ensues. Written by Joyojeet Pal   


General
Complete name                    : E:\Malayalam Movies\GodFather\GodFather.cd1.avi
Format                           : AVI
Format/Info                      : Audio Video Interleave
File size                        : 700 MiB
Duration                         : 1h 15mn
Overall bit rate                 : 1 295 Kbps
Writing application              : VirtualDubMod 1.5.4.1 (build 2178/release)
Writing library                  : VirtualDubMod build 2178/release

Video
ID                               : 0
Format                           : MPEG-4 Visual
Format profile                   : Advanced Simple@L5
Format settings, BVOP            : Yes
Format settings, QPel            : No
Format settings, GMC             : No warppoints
Format settings, Matrix          : Custom
Codec ID                         : XVID
Codec ID/Hint                    : XviD
Duration                         : 1h 15mn
Bit rate                         : 1 095 Kbps
Width                            : 512 pixels
Height                           : 320 pixels
Display aspect ratio             : 1.600
Frame rate                       : 29.970 fps
Color space                      : YUV
Chroma subsampling               : 4:2:0
Bit depth                        : 8 bits
Scan type                        : Progressive
Bits/(Pixel*Frame)               : 0.223
Stream size                      : 592 MiB (85%)
Writing library                  : XviD 1.0.3 (UTC 2004-12-20)

Audio
ID                               : 1
Format                           : AC-3
Format/Info                      : Audio Coding 3
Mode extension                   : CM (complete main)
Codec ID                         : 2000
Duration                         : 1h 15mn
Bit rate mode                    : Constant
Bit rate                         : 192 Kbps
Channel(s)                       : 2 channels
Channel positions                : Front: L R
Sampling rate                    : 48.0 KHz
Bit depth                        : 16 bits
Stream size                      : 104 MiB (15%)
Alignment                        : Aligned on interleaves
Interleave, duration             : 96 ms (2.88 video frames)
Interleave, preload duration     : 96 ms
Language                         : un / Ndonga / un / Ndonga

